<?xml version="1.0" standalone="no"?>
<!DOCTYPE svg PUBLIC "-//W3C//DTD SVG 20010904//EN"
 "http://www.w3.org/TR/2001/REC-SVG-20010904/DTD/svg10.dtd">
<svg version="1.0" xmlns="http://www.w3.org/2000/svg"
 width="424.000000pt" height="99.000000pt" viewBox="0 0 424.000000 99.000000"
 preserveAspectRatio="xMidYMid meet">

<g transform="translate(0.000000,99.000000) scale(0.100000,-0.100000)"
fill="#000000" stroke="none">
<path d="M785 769 c-38 -28 -171 -153 -295 -279 -138 -139 -241 -236 -267
-249 -49 -25 -115 -28 -133 -6 -11 13 -8 15 15 15 20 0 26 4 23 17 -2 13 -13
18 -38 18 -31 0 -35 -3 -38 -27 -5 -42 34 -62 107 -55 81 7 126 33 217 128
173 182 256 263 213 211 -152 -185 -199 -260 -199 -314 0 -25 4 -28 32 -28 27
0 45 14 127 102 53 56 122 129 154 163 l58 60 -57 -75 c-61 -81 -114 -181
-114 -218 0 -55 75 -39 158 33 35 30 64 55 66 55 1 0 1 -14 -2 -30 -6 -42 13
-60 62 -60 52 0 112 28 164 74 21 20 43 36 48 36 4 0 19 10 32 23 37 33 16 0
-46 -71 l-54 -62 36 0 c28 0 49 10 94 47 66 54 173 125 179 119 3 -2 -18 -26
-46 -53 -40 -39 -51 -56 -51 -81 0 -29 3 -32 30 -32 39 0 82 22 142 71 26 22
52 39 58 39 7 0 25 9 41 21 44 31 35 14 -31 -59 l-60 -67 34 -3 c26 -2 41 4
67 28 60 55 179 143 185 137 4 -3 -25 -41 -64 -84 l-71 -78 33 -3 c29 -3 47 7
119 65 94 75 147 109 147 94 0 -5 -12 -19 -27 -30 -39 -31 -73 -82 -73 -108 0
-19 5 -23 33 -23 30 0 70 21 143 75 20 15 20 14 16 -15 -6 -42 13 -60 62 -60
53 1 109 26 169 78 27 23 52 42 57 42 6 0 0 -20 -12 -44 -11 -24 -18 -51 -15
-60 9 -22 59 -21 105 3 42 21 132 98 132 112 0 17 -17 9 -76 -37 -65 -51 -114
-79 -114 -66 0 7 142 174 186 220 7 6 30 13 51 13 l38 2 -33 6 -32 6 40 45
c21 25 39 48 40 53 0 4 -15 7 -33 7 -28 0 -41 -9 -81 -55 -35 -40 -54 -55 -74
-56 -23 0 -24 -1 -7 -8 19 -8 19 -8 0 -18 -11 -6 -63 -46 -115 -88 -149 -120
-240 -165 -240 -117 0 37 27 59 81 65 66 8 99 29 99 63 0 26 -1 26 -60 22 -47
-3 -70 -11 -105 -36 -25 -18 -50 -32 -55 -32 -5 0 -39 -22 -76 -50 -63 -47
-84 -58 -84 -44 0 3 25 29 56 59 42 40 55 58 52 76 -5 36 -57 38 -113 4 l-45
-26 0 26 c0 22 -4 25 -37 25 -21 -1 -49 -7 -63 -15 -33 -19 -50 -19 -50 0 0
10 -10 15 -32 15 -23 0 -59 -19 -131 -67 -133 -92 -157 -106 -164 -100 -3 4
20 30 51 60 41 39 56 60 56 80 0 24 -4 27 -35 27 -20 0 -54 -9 -77 -21 l-41
-21 24 30 c13 16 77 89 142 163 l118 134 -32 3 c-27 3 -43 -8 -142 -105 -262
-254 -418 -370 -473 -349 -14 5 -13 9 3 37 20 35 20 35 87 44 55 7 100 43 89
71 -10 26 -111 15 -162 -19 -22 -15 -46 -27 -53 -27 -7 0 -44 -27 -83 -61 -82
-71 -105 -86 -105 -67 0 21 95 152 230 319 25 31 63 78 85 105 22 27 61 75 88
107 44 51 47 57 26 57 -46 0 -207 -143 -453 -402 -92 -98 -170 -178 -172 -178
-21 0 298 409 425 543 34 36 35 37 11 37 -14 0 -56 -23 -95 -51z m210 -389
c-19 -20 -75 -44 -75 -31 0 13 73 61 82 55 5 -4 2 -14 -7 -24z m1140 0 c-19
-20 -75 -44 -75 -31 0 13 73 61 82 55 5 -4 2 -14 -7 -24z"/>
<path d="M2844 801 c-113 -32 -184 -103 -184 -182 1 -70 43 -109 120 -109 l42
0 -30 -37 c-64 -82 -83 -148 -58 -206 9 -23 25 -41 41 -47 20 -8 25 -15 20
-30 -3 -11 1 -30 10 -43 15 -23 15 -26 -7 -51 -15 -17 -40 -29 -73 -35 l-50
-9 60 -1 c79 -1 129 22 133 63 3 22 -3 34 -20 47 -30 23 -19 32 54 48 94 20
186 95 204 167 3 12 0 35 -8 51 -12 26 -18 28 -74 31 -54 3 -65 0 -109 -30
-48 -32 -115 -117 -115 -144 0 -25 29 -15 45 17 36 68 132 149 178 149 21 0
47 -33 47 -60 0 -50 -51 -104 -138 -149 -62 -32 -110 -31 -139 3 -12 15 -23
32 -22 39 1 33 40 105 88 165 53 66 56 68 135 90 113 32 271 111 329 165 42
39 48 49 45 78 -3 34 -4 34 -57 37 -44 3 -66 -3 -125 -31 -89 -43 -190 -115
-284 -202 -71 -66 -74 -67 -115 -62 -30 4 -50 15 -69 37 -31 34 -34 56 -14
103 36 85 136 131 326 150 19 2 -1 4 -45 5 -49 0 -104 -6 -141 -17z m484 -15
c7 -32 -19 -65 -87 -111 -63 -43 -202 -106 -266 -121 -29 -6 -29 -5 20 46 65
67 165 143 240 180 65 33 88 35 93 6z"/>
<path d="M3606 555 c-35 -40 -54 -55 -74 -56 -23 0 -24 -1 -7 -8 19 -8 19 -8
0 -18 -11 -6 -63 -46 -115 -88 -113 -91 -185 -135 -222 -135 -33 0 -34 5 -9
46 16 26 27 32 71 37 65 8 100 29 100 62 0 23 -4 25 -47 25 -87 0 -169 -56
-180 -123 -8 -49 9 -67 61 -67 53 1 109 26 169 78 27 23 52 42 57 42 6 0 0
-20 -12 -44 -26 -54 -19 -76 22 -76 38 0 81 21 138 68 l42 35 -15 -29 c-8 -16
-15 -39 -15 -51 0 -19 6 -23 30 -23 39 0 72 17 135 69 27 23 56 41 64 41 8 0
25 10 38 22 13 12 25 19 29 16 3 -3 -22 -37 -56 -74 l-61 -69 31 -3 c22 -2 41
4 63 23 90 74 191 145 204 145 9 0 -8 -23 -41 -55 -47 -44 -57 -60 -54 -82 4
-35 41 -42 91 -18 50 23 139 102 126 111 -6 3 -23 -3 -37 -14 -72 -56 -133
-95 -140 -88 -4 5 9 20 28 35 57 43 80 72 80 102 0 27 -2 29 -42 29 -26 0 -55
-8 -73 -20 -38 -25 -45 -25 -45 0 0 31 -58 26 -111 -10 -24 -16 -48 -30 -52
-30 -5 0 -34 -20 -65 -44 -94 -72 -140 -85 -71 -20 17 16 49 50 71 77 l40 47
-44 0 c-38 0 -53 -8 -133 -71 -90 -71 -145 -106 -145 -92 0 5 43 58 96 118 87
101 99 111 137 116 39 6 40 6 9 7 l-34 2 41 49 c23 27 41 52 41 55 0 3 -15 6
-33 6 -28 0 -41 -9 -81 -55z m-301 -175 c-20 -22 -75 -44 -75 -30 0 14 72 60
82 54 5 -3 2 -14 -7 -24z"/>
<path d="M3750 515 c0 -10 10 -15 30 -15 20 0 30 5 30 15 0 10 -10 15 -30 15
-20 0 -30 -5 -30 -15z"/>
</g>
</svg>
